HIERARCHY
ROOT Hips
{
	OFFSET 0.000000 0.000000 0.000000 
	CHANNELS 6 Xposition Yposition Zposition Zrotation Yrotation Xrotation
	JOINT LeftUpLeg
	{
		OFFSET 1.363060 -1.794630 0.839290 
		CHANNELS 3 Zrotation Yrotation Xrotation
		JOINT LeftLeg
		{
			OFFSET 2.448110 -6.726130 0.000000 
			CHANNELS 3 Zrotation Yrotation Xrotation
			JOINT LeftFoot
			{
				OFFSET 2.562200 -7.039590 0.000000 
				CHANNELS 3 Zrotation Yrotation Xrotation
				JOINT LeftToeBase
				{
					OFFSET 0.157640 -0.433110 2.322550 
					CHANNELS 3 Zrotation Yrotation Xrotation
					End Site
					{
						OFFSET 0.000000 0.000000 0.000000 
					}
				}
			}
		}
	}
	JOINT RightUpLeg
	{
		OFFSET -1.305520 -1.794630 0.839290 
		CHANNELS 3 Zrotation Yrotation Xrotation
		JOINT RightLeg
		{
			OFFSET -2.542530 -6.985550 0.000000 
			CHANNELS 3 Zrotation Yrotation Xrotation
			JOINT RightFoot
			{
				OFFSET -2.568260 -7.056230 0.000000 
				CHANNELS 3 Zrotation Yrotation Xrotation
				JOINT RightToeBase
				{
					OFFSET -0.164730 -0.452590 2.363150 
					CHANNELS 3 Zrotation Yrotation Xrotation
					End Site
					{
						OFFSET 0.000000 0.000000 0.000000 
					}
				}
			}
		}
	}
	JOINT Spine
	{
		OFFSET 0.028270 2.035590 -0.193380 
		CHANNELS 3 Zrotation Yrotation Xrotation
		JOINT Spine1
		{
			OFFSET 0.056720 2.048850 -0.042750 
			CHANNELS 3 Zrotation Yrotation Xrotation
			JOINT Neck1
			{
				OFFSET -0.054170 1.746240 0.172020 
				CHANNELS 3 Zrotation Yrotation Xrotation
				JOINT Head
				{
					OFFSET 0.104070 1.761360 -0.123970 
					CHANNELS 3 Zrotation Yrotation Xrotation
					End Site
					{
						OFFSET 0.000000 0.000000 0.000000 
					}
				}
			}
			JOINT LeftArm
			{
				OFFSET 3.362410 1.200890 -0.311210 
				CHANNELS 3 Zrotation Yrotation Xrotation
				JOINT LeftForeArm
				{
					OFFSET 4.983000 -0.000000 -0.000000 
					CHANNELS 3 Zrotation Yrotation Xrotation
					JOINT LeftHand
					{
						OFFSET 3.483560 -0.000000 -0.000000 
						CHANNELS 3 Zrotation Yrotation Xrotation
						JOINT LeftHandIndex1
						{
							OFFSET 0.715260 -0.000000 -0.000000 
							CHANNELS 3 Zrotation Yrotation Xrotation
							End Site
							{
								OFFSET 0.000000 0.000000 0.000000 
							}
						}
					}
				}
			}
			JOINT RightArm
			{
				OFFSET -3.136600 1.374050 -0.404650 
				CHANNELS 3 Zrotation Yrotation Xrotation
				JOINT RightForeArm
				{
					OFFSET -5.241900 -0.000000 -0.000000 
					CHANNELS 3 Zrotation Yrotation Xrotation
					JOINT RightHand
					{
						OFFSET -3.444170 -0.000000 -0.000000 
						CHANNELS 3 Zrotation Yrotation Xrotation
						JOINT RightHandIndex1
						{
							OFFSET -0.622530 -0.000000 -0.000000 
							CHANNELS 3 Zrotation Yrotation Xrotation
							End Site
							{
								OFFSET 0.000000 0.000000 0.000000 
							}
						}
					}
				}
			}
		}
	}
}
MOTION
Frames: 12
Frame Time: 0.041667
9.599971 17.562201 14.368864 169.516202 -0.869757 -142.623055 -6.636683 -17.615226 -19.486134 1.015440 12.406110 33.415057 0.887909 28.744601 -2.340229 0.886100 -6.000500 -16.785900 -7.516190 3.203477 -85.360396 -9.852439 -24.537775 64.852585 -1.061622 -5.774899 -23.253850 -2.081800 9.034500 -25.903300 1.600120 -5.088747 -3.670343 -2.047156 -2.757660 6.021935 6.255847 -8.602968 13.096680 -0.630500 -3.726000 2.346500 -79.283755 -30.997964 40.451771 41.291870 -44.393053 -22.056314 -1.739819 -0.171090 -13.128404 -7.125000 0.000000 0.000000 60.131023 15.157891 22.235676 -28.875554 39.635143 -13.621030 0.765971 3.608540 -9.033944 7.125000 0.000000 0.000000 
9.702625 17.665513 14.277068 169.732300 -0.608268 -142.643574 -6.785560 -17.242198 -20.744523 1.695142 13.527007 36.649486 0.775311 28.985357 -3.440931 1.138000 -6.774600 -19.049300 -6.760220 3.891882 -84.780556 -9.645493 -24.459149 64.296502 -1.102887 -5.163552 -23.315524 -2.024600 8.917200 -25.536600 1.602696 -4.839000 -3.598398 -1.961675 -2.645014 6.335427 6.291889 -8.659519 13.374483 -0.646200 -3.735100 2.588000 -79.703429 -31.023861 40.193079 41.397348 -44.458624 -22.137203 -1.756487 -0.157889 -12.760730 -7.125000 0.000000 0.000000 59.999631 15.710152 21.761329 -29.030241 39.733572 -13.733345 0.754431 3.610157 -9.305604 7.125000 0.000000 0.000000 
9.800562 17.766302 14.184834 169.978413 -0.376851 -142.631484 -6.875661 -16.982190 -22.008349 2.427109 14.591110 39.817807 0.651655 29.151961 -4.808371 0.846400 -5.868000 -16.401900 -5.964047 4.556944 -84.161902 -9.397570 -24.356536 63.622709 -1.138960 -4.613922 -23.386003 -1.980900 8.826100 -25.252800 1.641915 -4.656100 -3.592027 -1.740833 -2.563845 6.422914 6.308729 -8.634111 13.473928 -0.642600 -3.715500 2.635500 -80.207039 -30.671393 40.028141 41.449717 -44.489312 -22.173142 -1.776699 -0.139356 -12.516602 -7.125000 0.000000 0.000000 59.950800 16.129692 21.600990 -29.143488 39.802937 -13.809671 0.718659 3.630184 -9.727988 7.125000 0.000000 0.000000 
9.897403 17.864569 14.093915 170.240196 -0.190043 -142.665747 -6.937347 -16.869984 -23.272260 3.225917 15.624239 43.028271 0.531609 29.369862 -6.197811 0.534400 -4.684000 -13.009500 -5.053243 5.141682 -83.444225 -9.059200 -24.199957 62.688838 -1.143652 -4.210921 -23.260248 -1.969400 8.802100 -25.178200 1.744533 -4.663576 -3.648473 -1.320070 -2.574231 6.285059 6.247386 -8.244607 13.382625 -0.561400 -3.534200 2.452800 -80.730620 -29.773071 39.865836 41.428855 -44.479186 -22.155036 -1.784298 -0.135725 -12.300074 -7.125000 0.000000 0.000000 59.958086 16.456350 22.015198 -29.284869 39.903822 -13.894995 0.642398 3.675467 -10.309736 7.125000 0.000000 0.000000 
9.995231 17.962506 14.001132 170.520201 -0.053757 -142.787042 -7.031984 -16.798906 -24.438709 4.078673 16.585686 46.230828 0.524511 29.262293 -6.978122 0.632300 -5.088000 -14.159700 -3.964061 5.613389 -82.627983 -8.750097 -24.041597 61.825360 -1.163353 -3.634143 -23.199687 -1.945300 8.751200 -25.020000 1.780045 -4.610449 -3.636153 -1.191867 -2.553464 6.412956 6.102750 -8.042296 13.562225 -0.621800 -3.421700 2.484600 -80.959101 -29.218810 39.850554 41.349606 -44.450258 -22.105085 -1.770704 -0.134856 -12.088393 -7.125000 0.000000 0.000000 60.304059 16.792924 22.201714 -29.336900 39.943331 -13.914972 0.589532 3.672394 -10.680016 7.125000 0.000000 0.000000 
10.090208 18.060005 13.906594 170.841333 0.123060 -142.881485 -7.139756 -16.640083 -25.569356 4.920495 17.422938 49.254500 0.677544 28.744179 -6.602373 1.026500 -6.444900 -18.080800 -2.825971 6.107400 -81.845220 -8.509400 -23.913606 61.151553 -1.203631 -2.888078 -23.263334 -1.871200 8.592600 -24.529000 1.809322 -4.563681 -3.618606 -1.132474 -2.536188 6.627695 5.963583 -7.911422 13.926384 -0.674300 -3.334000 2.618200 -81.304860 -28.672081 39.749579 41.126050 -44.335158 -21.925379 -1.762469 -0.129628 -11.608398 -7.125000 0.000000 0.000000 60.740776 17.065631 22.496467 -29.426189 40.015995 -13.951440 0.566936 3.624980 -10.608444 7.125000 0.000000 0.000000 
10.183320 18.155969 13.818966 171.107995 0.384637 -142.957600 -7.333647 -16.537864 -26.724109 5.793940 18.208538 52.232938 0.864134 27.858882 -6.346060 1.466300 -7.652500 -21.663500 -1.805152 6.600749 -81.105576 -8.239219 -23.768459 60.388552 -1.209230 -2.301308 -23.101823 -1.814100 8.467600 -24.143500 1.832099 -4.483891 -3.629069 -1.007636 -2.500551 6.706225 5.996013 -7.803264 14.162234 -0.622100 -3.265300 2.650300 -81.720075 -28.033881 39.719141 40.845326 -44.176287 -21.690403 -1.766192 -0.133031 -11.245248 -7.125000 0.000000 0.000000 61.206431 17.177600 22.971713 -29.562702 40.134019 -14.025790 0.564199 3.597646 -10.516673 7.125000 0.000000 0.000000 
10.275006 18.248642 13.736273 171.397509 0.590883 -143.046347 -7.464967 -16.529190 -27.928353 6.733015 18.974445 55.253646 1.002193 26.789180 -6.816348 1.770500 -8.370700 -23.845700 -0.755613 7.076497 -80.358055 -7.953575 -23.611445 59.580507 -1.199129 -1.958584 -22.913939 -1.848200 8.542400 -24.374000 1.883426 -4.462624 -3.688140 -0.781058 -2.496811 6.601145 6.149256 -7.893274 14.830896 -0.484100 -3.269900 2.900600 -82.247311 -27.043338 39.741944 40.728395 -44.105066 -21.602831 -1.757441 -0.145746 -11.195750 -7.125000 0.000000 0.000000 61.589147 17.074347 23.778073 -29.780189 40.317276 -14.155999 0.546417 3.591284 -10.686632 7.125000 0.000000 0.000000 
10.367240 18.337696 13.651606 171.725467 0.817012 -143.120957 -7.596657 -16.488276 -29.105750 7.678765 19.665599 58.181708 1.128937 25.682464 -7.331427 2.051600 -8.972800 -25.710400 0.283966 7.616861 -79.631805 -7.689551 -23.467018 58.833662 -1.207655 -1.599361 -22.900372 -1.853600 8.554200 -24.410400 1.951538 -4.461979 -3.767555 -0.503453 -2.494090 6.404746 5.974980 -7.461743 14.751894 -0.435600 -3.068800 2.713000 -82.801198 -25.822187 39.763803 40.619359 -44.044562 -21.532421 -1.738460 -0.147662 -10.963697 -7.125000 0.000000 0.000000 61.992202 16.775355 24.777272 -30.083481 40.575441 -14.346262 0.497162 3.593203 -10.682883 7.125000 0.000000 0.000000 
10.459585 18.425763 13.566171 172.035278 1.016413 -143.181447 -7.807140 -16.460859 -30.219160 8.594702 20.269894 60.947605 1.277750 24.420963 -7.523827 2.547400 -9.923700 -28.729900 1.278513 8.102761 -78.830621 -7.385475 -23.287212 57.951653 -1.210995 -1.126675 -22.818015 -1.809500 8.457500 -24.112500 1.934751 -4.371410 -3.785388 -0.560114 -2.450178 6.471097 5.767790 -7.234323 15.163205 -0.539200 -2.924100 2.844000 -82.945370 -25.058609 39.934953 40.338991 -43.893340 -21.317377 -1.723793 -0.130613 -10.669733 -7.125000 0.000000 0.000000 62.752229 16.545205 25.426085 -30.296981 40.774471 -14.483863 0.482834 3.583922 -10.563120 7.125000 0.000000 0.000000 
10.548968 18.518437 13.482052 172.270441 1.159288 -143.328043 -8.146959 -16.482897 -31.254981 9.487793 20.798529 63.593670 1.428350 23.062023 -7.452455 3.275900 -11.128700 -32.715300 2.201394 8.552735 -77.861292 -7.053515 -23.073861 56.967328 -1.202093 -0.737525 -22.673571 -1.767300 8.363700 -23.824200 1.934794 -4.365317 -3.832470 -0.569404 -2.435985 6.380710 5.697509 -7.183184 15.068724 -0.559400 -2.898900 2.624800 -83.251628 -24.030410 40.001535 39.968001 -43.680714 -21.020553 -1.716207 -0.111397 -10.317597 -7.125000 0.000000 0.000000 63.529225 16.203687 26.375510 -30.398705 40.892554 -14.534723 0.505933 3.569581 -10.369674 7.125000 0.000000 0.000000 
10.634293 18.611878 13.397056 172.395164 1.493662 -143.572744 -8.791938 -16.485161 -32.091858 10.327911 21.244892 66.024772 1.530259 21.811337 -7.741097 3.880400 -11.999600 -35.730400 2.884364 9.066506 -76.823732 -6.754937 -22.871676 56.064578 -1.197352 -0.330951 -22.569224 -1.696400 8.202900 -23.332000 1.875105 -4.208431 -3.798407 -0.646954 -2.373028 6.518184 5.654003 -7.543980 15.490248 -0.637700 -3.049100 2.858400 -83.482195 -23.641709 40.117948 39.429659 -43.356693 -20.576403 -1.703518 -0.088129 -10.078360 -7.125000 0.000000 0.000000 64.279185 16.107277 26.756402 -30.423978 40.940744 -14.544090 0.525433 3.570005 -9.972238 7.125000 0.000000 0.000000 
